<svg xmlns="http://www.w3.org/2000/svg" xmlns:xlink="http://www.w3.org/1999/xlink" width="500" zoomAndPan="magnify" viewBox="0 0 375 374.999991" height="500" preserveAspectRatio="xMidYMid meet" version="1.0"><defs><g/><clipPath id="0dd3d8222b"><path d="M 22.105469 171.535156 L 67.414062 171.535156 L 67.414062 204.105469 L 22.105469 204.105469 Z M 22.105469 171.535156 " clip-rule="nonzero"/></clipPath><clipPath id="60d4fdb351"><path d="M 27.570312 161.269531 L 38.898438 161.269531 L 38.898438 166 L 27.570312 166 Z M 27.570312 161.269531 " clip-rule="nonzero"/></clipPath><clipPath id="db28779723"><path d="M 31 163 L 38.898438 163 L 38.898438 166 L 31 166 Z M 31 163 " clip-rule="nonzero"/></clipPath><clipPath id="4fc041b5ae"><path d="M 27.570312 161.269531 L 36 161.269531 L 36 166 L 27.570312 166 Z M 27.570312 161.269531 " clip-rule="nonzero"/></clipPath></defs><g fill="#ffffff" fill-opacity="1"><g transform="translate(72.661097, 202.469426)"><g><path d="M 8.453125 0 L 8.453125 -21.84375 L 0.984375 -21.84375 L 0.984375 -25.609375 L 20.625 -25.609375 L 20.625 -21.84375 L 13.125 -21.84375 L 13.125 0 Z M 8.453125 0 "/></g></g></g><g fill="#ffffff" fill-opacity="1"><g transform="translate(99.937912, 202.469426)"><g><path d="M 2.484375 0 L 2.484375 -25.609375 L 19.203125 -25.609375 L 19.203125 -21.84375 L 7.171875 -21.84375 L 7.171875 -14.8125 L 18.109375 -14.8125 L 18.109375 -11.15625 L 7.171875 -11.15625 L 7.171875 -3.765625 L 19.203125 -3.765625 L 19.203125 0 Z M 2.484375 0 "/></g></g></g><g fill="#ffffff" fill-opacity="1"><g transform="translate(126.739441, 202.469426)"><g><path d="M 14.078125 0.4375 C 11.492188 0.4375 9.273438 -0.113281 7.421875 -1.21875 C 5.566406 -2.332031 4.140625 -3.882812 3.140625 -5.875 C 2.140625 -7.863281 1.640625 -10.160156 1.640625 -12.765625 C 1.640625 -15.367188 2.140625 -17.671875 3.140625 -19.671875 C 4.140625 -21.671875 5.566406 -23.234375 7.421875 -24.359375 C 9.273438 -25.484375 11.492188 -26.046875 14.078125 -26.046875 C 17.148438 -26.046875 19.664062 -25.28125 21.625 -23.75 C 23.59375 -22.226562 24.820312 -20.09375 25.3125 -17.34375 L 20.15625 -17.34375 C 19.832031 -18.726562 19.148438 -19.816406 18.109375 -20.609375 C 17.078125 -21.398438 15.710938 -21.796875 14.015625 -21.796875 C 11.648438 -21.796875 9.796875 -20.988281 8.453125 -19.375 C 7.109375 -17.769531 6.4375 -15.566406 6.4375 -12.765625 C 6.4375 -9.960938 7.109375 -7.757812 8.453125 -6.15625 C 9.796875 -4.5625 11.648438 -3.765625 14.015625 -3.765625 C 15.710938 -3.765625 17.078125 -4.132812 18.109375 -4.875 C 19.148438 -5.625 19.832031 -6.65625 20.15625 -7.96875 L 25.3125 -7.96875 C 24.820312 -5.34375 23.59375 -3.285156 21.625 -1.796875 C 19.664062 -0.304688 17.148438 0.4375 14.078125 0.4375 Z M 14.078125 0.4375 "/></g></g></g><g fill="#ffffff" fill-opacity="1"><g transform="translate(159.353912, 202.469426)"><g><path d="M 2.484375 0 L 2.484375 -25.609375 L 7.171875 -25.609375 L 7.171875 -14.953125 L 18.65625 -14.953125 L 18.65625 -25.609375 L 23.34375 -25.609375 L 23.34375 0 L 18.65625 0 L 18.65625 -11.15625 L 7.171875 -11.15625 L 7.171875 0 Z M 2.484375 0 "/></g></g></g><g fill="#ffffff" fill-opacity="1"><g transform="translate(190.827842, 202.469426)"><g><path d="M 8.703125 0 L 8.703125 -23.078125 L 1.0625 -23.078125 L 1.0625 -25.609375 L 19.421875 -25.609375 L 19.421875 -23.078125 L 11.78125 -23.078125 L 11.78125 0 Z M 8.703125 0 "/></g></g></g><g fill="#ffffff" fill-opacity="1"><g transform="translate(216.971306, 202.469426)"><g><path d="M 2.703125 0 L 2.703125 -25.609375 L 10.96875 -25.609375 C 12.96875 -25.609375 14.601562 -25.273438 15.875 -24.609375 C 17.144531 -23.953125 18.082031 -23.050781 18.6875 -21.90625 C 19.300781 -20.757812 19.609375 -19.492188 19.609375 -18.109375 C 19.609375 -16.492188 19.175781 -15.039062 18.3125 -13.75 C 17.445312 -12.457031 16.097656 -11.546875 14.265625 -11.015625 L 19.859375 0 L 16.234375 0 L 11.046875 -10.578125 L 5.78125 -10.578125 L 5.78125 0 Z M 5.78125 -12.984375 L 10.75 -12.984375 C 12.726562 -12.984375 14.164062 -13.457031 15.0625 -14.40625 C 15.96875 -15.363281 16.421875 -16.582031 16.421875 -18.0625 C 16.421875 -19.582031 15.972656 -20.785156 15.078125 -21.671875 C 14.191406 -22.554688 12.738281 -23 10.71875 -23 L 5.78125 -23 Z M 5.78125 -12.984375 "/></g></g></g><g fill="#ffffff" fill-opacity="1"><g transform="translate(244.321232, 202.469426)"><g><path d="M 14.34375 0.4375 C 11.832031 0.4375 9.628906 -0.113281 7.734375 -1.21875 C 5.847656 -2.332031 4.375 -3.890625 3.3125 -5.890625 C 2.25 -7.890625 1.71875 -10.191406 1.71875 -12.796875 C 1.71875 -15.410156 2.25 -17.707031 3.3125 -19.6875 C 4.375 -21.675781 5.847656 -23.234375 7.734375 -24.359375 C 9.628906 -25.484375 11.832031 -26.046875 14.34375 -26.046875 C 16.875 -26.046875 19.082031 -25.484375 20.96875 -24.359375 C 22.863281 -23.234375 24.332031 -21.675781 25.375 -19.6875 C 26.425781 -17.707031 26.953125 -15.410156 26.953125 -12.796875 C 26.953125 -10.191406 26.425781 -7.890625 25.375 -5.890625 C 24.332031 -3.890625 22.863281 -2.332031 20.96875 -1.21875 C 19.082031 -0.113281 16.875 0.4375 14.34375 0.4375 Z M 14.34375 -2.265625 C 16.21875 -2.265625 17.867188 -2.6875 19.296875 -3.53125 C 20.722656 -4.375 21.832031 -5.582031 22.625 -7.15625 C 23.414062 -8.726562 23.8125 -10.609375 23.8125 -12.796875 C 23.8125 -14.992188 23.414062 -16.875 22.625 -18.4375 C 21.832031 -20 20.722656 -21.195312 19.296875 -22.03125 C 17.867188 -22.875 16.21875 -23.296875 14.34375 -23.296875 C 12.457031 -23.296875 10.800781 -22.875 9.375 -22.03125 C 7.957031 -21.195312 6.847656 -20 6.046875 -18.4375 C 5.253906 -16.875 4.859375 -14.992188 4.859375 -12.796875 C 4.859375 -10.609375 5.253906 -8.726562 6.046875 -7.15625 C 6.847656 -5.582031 7.957031 -4.375 9.375 -3.53125 C 10.800781 -2.6875 12.457031 -2.265625 14.34375 -2.265625 Z M 14.34375 -2.265625 "/></g></g></g><g fill="#ffffff" fill-opacity="1"><g transform="translate(278.65399, 202.469426)"><g><path d="M 2.703125 0 L 2.703125 -25.609375 L 5.78125 -25.609375 L 19.421875 -5.078125 L 19.421875 -25.609375 L 22.5 -25.609375 L 22.5 0 L 19.421875 0 L 5.78125 -20.515625 L 5.78125 0 Z M 2.703125 0 "/></g></g></g><g fill="#ffffff" fill-opacity="1"><g transform="translate(309.5136, 202.469426)"><g><path d="M 2.703125 0 L 2.703125 -25.609375 L 5.78125 -25.609375 L 5.78125 0 Z M 2.703125 0 "/></g></g></g><g fill="#ffffff" fill-opacity="1"><g transform="translate(323.665618, 202.469426)"><g><path d="M 13.9375 0.4375 C 11.425781 0.4375 9.257812 -0.113281 7.4375 -1.21875 C 5.625 -2.332031 4.21875 -3.882812 3.21875 -5.875 C 2.21875 -7.863281 1.71875 -10.171875 1.71875 -12.796875 C 1.71875 -15.410156 2.21875 -17.707031 3.21875 -19.6875 C 4.21875 -21.675781 5.625 -23.234375 7.4375 -24.359375 C 9.257812 -25.484375 11.425781 -26.046875 13.9375 -26.046875 C 16.863281 -26.046875 19.242188 -25.34375 21.078125 -23.9375 C 22.921875 -22.539062 24.097656 -20.582031 24.609375 -18.0625 L 21.21875 -18.0625 C 20.820312 -19.65625 20.019531 -20.929688 18.8125 -21.890625 C 17.613281 -22.859375 15.988281 -23.34375 13.9375 -23.34375 C 12.101562 -23.34375 10.503906 -22.921875 9.140625 -22.078125 C 7.773438 -21.234375 6.71875 -20.023438 5.96875 -18.453125 C 5.226562 -16.878906 4.859375 -14.992188 4.859375 -12.796875 C 4.859375 -10.609375 5.226562 -8.726562 5.96875 -7.15625 C 6.71875 -5.582031 7.773438 -4.375 9.140625 -3.53125 C 10.503906 -2.6875 12.101562 -2.265625 13.9375 -2.265625 C 15.988281 -2.265625 17.613281 -2.734375 18.8125 -3.671875 C 20.019531 -4.609375 20.820312 -5.859375 21.21875 -7.421875 L 24.609375 -7.421875 C 24.097656 -4.960938 22.921875 -3.035156 21.078125 -1.640625 C 19.242188 -0.253906 16.863281 0.4375 13.9375 0.4375 Z M 13.9375 0.4375 "/></g></g></g><g clip-path="url(#0dd3d8222b)"><path fill="#ffffff" d="M 33.945312 194.929688 L 32.324219 194.929688 L 32.324219 193.582031 L 33.945312 193.582031 Z M 34.460938 192.558594 L 31.804688 192.558594 C 31.523438 192.558594 31.289062 192.789062 31.289062 193.074219 L 31.289062 195.441406 C 31.289062 195.722656 31.523438 195.957031 31.804688 195.957031 L 34.460938 195.957031 C 34.746094 195.957031 34.980469 195.722656 34.980469 195.441406 L 34.980469 193.074219 C 34.980469 192.789062 34.746094 192.558594 34.460938 192.558594 Z M 35.710938 189.914062 L 34.089844 189.914062 L 34.089844 188.570312 L 35.710938 188.570312 Z M 36.746094 190.425781 L 36.746094 188.058594 C 36.746094 187.777344 36.511719 187.546875 36.230469 187.546875 L 33.574219 187.546875 C 33.289062 187.546875 33.058594 187.777344 33.058594 188.058594 L 33.058594 190.425781 C 33.058594 190.707031 33.289062 190.9375 33.574219 190.9375 L 36.230469 190.9375 C 36.511719 190.9375 36.746094 190.707031 36.746094 190.425781 Z M 33.347656 199.953125 L 31.722656 199.953125 L 31.722656 198.601562 L 33.347656 198.601562 Z M 33.863281 197.578125 L 31.207031 197.578125 C 30.921875 197.578125 30.691406 197.808594 30.691406 198.089844 L 30.691406 200.464844 C 30.691406 200.746094 30.921875 200.976562 31.207031 200.976562 L 33.863281 200.976562 C 34.148438 200.976562 34.378906 200.746094 34.378906 200.464844 L 34.378906 198.089844 C 34.378906 197.808594 34.148438 197.578125 33.863281 197.578125 Z M 28.773438 194.929688 L 26.503906 194.929688 L 26.503906 193.582031 L 28.773438 193.582031 Z M 29.289062 192.558594 L 25.988281 192.558594 C 25.703125 192.558594 25.46875 192.789062 25.46875 193.074219 L 25.46875 195.441406 C 25.46875 195.722656 25.703125 195.957031 25.988281 195.957031 L 29.289062 195.957031 C 29.574219 195.957031 29.808594 195.722656 29.808594 195.441406 L 29.808594 193.074219 C 29.808594 192.789062 29.574219 192.558594 29.289062 192.558594 Z M 26.503906 188.570312 L 30.261719 188.570312 L 30.261719 189.914062 L 26.503906 189.914062 Z M 25.988281 190.9375 L 30.777344 190.9375 C 31.0625 190.9375 31.296875 190.707031 31.296875 190.425781 L 31.296875 188.058594 C 31.296875 187.777344 31.0625 187.546875 30.777344 187.546875 L 25.988281 187.546875 C 25.703125 187.546875 25.46875 187.777344 25.46875 188.058594 L 25.46875 190.425781 C 25.46875 190.707031 25.703125 190.9375 25.988281 190.9375 Z M 28.125 199.953125 L 26.503906 199.953125 L 26.503906 198.601562 L 28.125 198.601562 Z M 28.644531 197.578125 L 25.988281 197.578125 C 25.703125 197.578125 25.46875 197.808594 25.46875 198.089844 L 25.46875 200.464844 C 25.46875 200.746094 25.703125 200.976562 25.988281 200.976562 L 28.644531 200.976562 C 28.925781 200.976562 29.160156 200.746094 29.160156 200.464844 L 29.160156 198.089844 C 29.160156 197.808594 28.925781 197.578125 28.644531 197.578125 Z M 55.976562 199.953125 L 54.355469 199.953125 L 54.355469 198.601562 L 55.976562 198.601562 Z M 56.492188 197.578125 L 53.839844 197.578125 C 53.554688 197.578125 53.320312 197.808594 53.320312 198.089844 L 53.320312 200.464844 C 53.320312 200.746094 53.554688 200.976562 53.839844 200.976562 L 56.492188 200.976562 C 56.777344 200.976562 57.011719 200.746094 57.011719 200.464844 L 57.011719 198.089844 C 57.011719 197.808594 56.777344 197.578125 56.492188 197.578125 Z M 63.015625 189.914062 L 61.390625 189.914062 L 61.390625 188.570312 L 63.015625 188.570312 Z M 63.53125 187.546875 L 60.875 187.546875 C 60.59375 187.546875 60.359375 187.777344 60.359375 188.058594 L 60.359375 190.425781 C 60.359375 190.707031 60.59375 190.9375 60.875 190.9375 L 63.53125 190.9375 C 63.816406 190.9375 64.050781 190.707031 64.050781 190.425781 L 64.050781 188.058594 C 64.050781 187.777344 63.816406 187.546875 63.53125 187.546875 Z M 63.015625 194.929688 L 58.199219 194.929688 L 58.199219 193.582031 L 63.015625 193.582031 Z M 63.53125 192.558594 L 57.683594 192.558594 C 57.398438 192.558594 57.164062 192.789062 57.164062 193.074219 L 57.164062 195.441406 C 57.164062 195.722656 57.398438 195.957031 57.683594 195.957031 L 63.53125 195.957031 C 63.816406 195.957031 64.050781 195.722656 64.050781 195.441406 L 64.050781 193.074219 C 64.050781 192.789062 63.816406 192.558594 63.53125 192.558594 Z M 54.75 194.929688 L 53.125 194.929688 L 53.125 193.582031 L 54.75 193.582031 Z M 55.265625 195.957031 C 55.546875 195.957031 55.78125 195.722656 55.78125 195.441406 L 55.78125 193.074219 C 55.78125 192.789062 55.546875 192.558594 55.265625 192.558594 L 52.609375 192.558594 C 52.324219 192.558594 52.09375 192.789062 52.09375 193.074219 L 52.09375 195.441406 C 52.09375 195.722656 52.324219 195.957031 52.609375 195.957031 Z M 50.429688 199.953125 L 37.417969 199.953125 L 37.417969 198.601562 L 50.429688 198.601562 Z M 50.949219 197.578125 L 36.902344 197.578125 C 36.617188 197.578125 36.382812 197.808594 36.382812 198.089844 L 36.382812 200.464844 C 36.382812 200.746094 36.617188 200.976562 36.902344 200.976562 L 50.949219 200.976562 C 51.230469 200.976562 51.464844 200.746094 51.464844 200.464844 L 51.464844 198.089844 C 51.464844 197.808594 51.230469 197.578125 50.949219 197.578125 Z M 63.015625 199.953125 L 60.402344 199.953125 L 60.402344 198.601562 L 63.015625 198.601562 Z M 63.53125 197.578125 L 59.882812 197.578125 C 59.597656 197.578125 59.367188 197.808594 59.367188 198.089844 L 59.367188 200.464844 C 59.367188 200.746094 59.597656 200.976562 59.882812 200.976562 L 63.53125 200.976562 C 63.816406 200.976562 64.050781 200.746094 64.050781 200.464844 L 64.050781 198.089844 C 64.050781 197.808594 63.816406 197.578125 63.53125 197.578125 Z M 37.523438 193.582031 L 39.144531 193.582031 L 39.144531 194.929688 L 37.523438 194.929688 Z M 36.492188 193.074219 L 36.492188 195.441406 C 36.492188 195.722656 36.722656 195.957031 37.007812 195.957031 L 39.664062 195.957031 C 39.945312 195.957031 40.179688 195.722656 40.179688 195.441406 L 40.179688 193.074219 C 40.179688 192.789062 39.945312 192.558594 39.664062 192.558594 L 37.007812 192.558594 C 36.722656 192.558594 36.492188 192.789062 36.492188 193.074219 Z M 55.933594 188.570312 L 57.554688 188.570312 L 57.554688 189.914062 L 55.933594 189.914062 Z M 55.417969 190.9375 L 58.070312 190.9375 C 58.355469 190.9375 58.589844 190.707031 58.589844 190.425781 L 58.589844 188.058594 C 58.589844 187.777344 58.355469 187.546875 58.070312 187.546875 L 55.417969 187.546875 C 55.132812 187.546875 54.898438 187.777344 54.898438 188.058594 L 54.898438 190.425781 C 54.898438 190.707031 55.132812 190.9375 55.417969 190.9375 Z M 50.472656 188.570312 L 52.09375 188.570312 L 52.09375 189.914062 L 50.472656 189.914062 Z M 49.957031 190.9375 L 52.609375 190.9375 C 52.894531 190.9375 53.128906 190.707031 53.128906 190.425781 L 53.128906 188.058594 C 53.128906 187.777344 52.894531 187.546875 52.609375 187.546875 L 49.957031 187.546875 C 49.671875 187.546875 49.4375 187.777344 49.4375 188.058594 L 49.4375 190.425781 C 49.4375 190.707031 49.671875 190.9375 49.957031 190.9375 Z M 42.726562 193.582031 L 44.347656 193.582031 L 44.347656 194.929688 L 42.726562 194.929688 Z M 41.691406 193.074219 L 41.691406 195.441406 C 41.691406 195.722656 41.925781 195.957031 42.210938 195.957031 L 44.863281 195.957031 C 45.148438 195.957031 45.378906 195.722656 45.378906 195.441406 L 45.378906 193.074219 C 45.378906 192.789062 45.148438 192.558594 44.863281 192.558594 L 42.210938 192.558594 C 41.925781 192.558594 41.691406 192.789062 41.691406 193.074219 Z M 49.546875 194.929688 L 47.925781 194.929688 L 47.925781 193.582031 L 49.546875 193.582031 Z M 47.410156 192.558594 C 47.125 192.558594 46.890625 192.789062 46.890625 193.074219 L 46.890625 195.441406 C 46.890625 195.722656 47.125 195.957031 47.410156 195.957031 L 50.0625 195.957031 C 50.347656 195.957031 50.582031 195.722656 50.582031 195.441406 L 50.582031 193.074219 C 50.582031 192.789062 50.347656 192.558594 50.0625 192.558594 Z M 39.550781 188.570312 L 41.171875 188.570312 L 41.171875 189.914062 L 39.550781 189.914062 Z M 39.035156 190.9375 L 41.6875 190.9375 C 41.972656 190.9375 42.207031 190.707031 42.207031 190.425781 L 42.207031 188.058594 C 42.207031 187.777344 41.972656 187.546875 41.6875 187.546875 L 39.035156 187.546875 C 38.75 187.546875 38.515625 187.777344 38.515625 188.058594 L 38.515625 190.425781 C 38.515625 190.707031 38.75 190.9375 39.035156 190.9375 Z M 45.011719 188.570312 L 46.632812 188.570312 L 46.632812 189.914062 L 45.011719 189.914062 Z M 44.496094 190.9375 L 47.148438 190.9375 C 47.433594 190.9375 47.667969 190.707031 47.667969 190.425781 L 47.667969 188.058594 C 47.667969 187.777344 47.433594 187.546875 47.148438 187.546875 L 44.496094 187.546875 C 44.210938 187.546875 43.976562 187.777344 43.976562 188.058594 L 43.976562 190.425781 C 43.976562 190.707031 44.210938 190.9375 44.496094 190.9375 Z M 66.378906 202.054688 C 66.378906 202.621094 65.910156 203.082031 65.34375 203.082031 L 24.175781 203.082031 C 23.605469 203.082031 23.140625 202.621094 23.140625 202.054688 L 23.140625 186.46875 C 23.140625 185.902344 23.605469 185.441406 24.175781 185.441406 L 61.152344 185.441406 L 61.152344 181.980469 C 61.152344 181.207031 60.519531 180.578125 59.738281 180.578125 L 34.761719 180.578125 C 33.460938 180.578125 32.40625 179.53125 32.40625 178.242188 L 32.40625 172.558594 L 33.347656 172.558594 L 33.347656 178.242188 C 33.347656 179.015625 33.984375 179.644531 34.761719 179.644531 L 59.738281 179.644531 C 61.039062 179.644531 62.097656 180.691406 62.097656 181.980469 L 62.097656 185.441406 L 65.34375 185.441406 C 65.910156 185.441406 66.378906 185.902344 66.378906 186.46875 Z M 65.34375 184.417969 L 63.132812 184.417969 L 63.132812 181.980469 C 63.132812 180.125 61.609375 178.621094 59.738281 178.621094 L 34.761719 178.621094 C 34.554688 178.621094 34.382812 178.449219 34.382812 178.242188 L 34.382812 171.535156 L 31.371094 171.535156 L 31.371094 178.242188 C 31.371094 180.09375 32.890625 181.601562 34.761719 181.601562 L 59.738281 181.601562 C 59.949219 181.601562 60.121094 181.769531 60.121094 181.980469 L 60.121094 184.417969 L 24.175781 184.417969 C 23.035156 184.417969 22.105469 185.335938 22.105469 186.46875 L 22.105469 202.054688 C 22.105469 203.1875 23.035156 204.105469 24.175781 204.105469 L 65.34375 204.105469 C 66.484375 204.105469 67.414062 203.1875 67.414062 202.054688 L 67.414062 186.46875 C 67.414062 185.335938 66.484375 184.417969 65.34375 184.417969 " fill-opacity="1" fill-rule="nonzero"/></g><path fill="#ffffff" d="M 31.75 169.234375 C 31.730469 169.433594 31.765625 169.636719 31.878906 169.84375 C 32.601562 171.171875 34.910156 170.339844 34.511719 168.894531 C 34.121094 167.480469 31.890625 167.9375 31.75 169.234375 Z M 31.75 169.234375 " fill-opacity="1" fill-rule="nonzero"/><path fill="#ffffff" d="M 30.511719 167.664062 C 30.671875 167.757812 30.820312 167.542969 30.925781 167.460938 C 31.507812 167.007812 32.273438 166.84375 33.011719 166.796875 C 33.878906 166.738281 34.679688 167.152344 35.367188 167.601562 C 35.429688 167.640625 35.492188 167.683594 35.566406 167.699219 C 35.875 167.773438 36.230469 167.253906 36.402344 167.066406 C 36.617188 166.835938 36.773438 166.601562 36.566406 166.339844 C 36.367188 166.09375 36.109375 165.871094 35.828125 165.707031 C 35.441406 165.488281 35.011719 165.335938 34.574219 165.234375 C 33.976562 165.09375 33.351562 165.050781 32.734375 165.105469 C 31.734375 165.195312 30.855469 165.460938 30.035156 165.996094 C 29.933594 166.0625 29.824219 166.136719 29.777344 166.246094 C 29.710938 166.414062 29.8125 166.597656 29.910156 166.75 C 29.984375 166.867188 30.265625 167.515625 30.511719 167.664062 Z M 30.511719 167.664062 " fill-opacity="1" fill-rule="nonzero"/><g clip-path="url(#60d4fdb351)"><path fill="#ffffff" d="M 32.976562 163.710938 C 34.589844 163.695312 36.171875 164.28125 37.332031 165.390625 C 37.371094 165.429688 37.414062 165.472656 37.472656 165.492188 C 37.832031 165.613281 38.160156 164.980469 38.300781 164.765625 C 38.582031 164.335938 38.828125 163.910156 38.496094 163.429688 C 38.003906 162.714844 37.074219 162.09375 36.21875 161.824219 C 34.835938 161.390625 33.335938 161.273438 31.902344 161.457031 C 30.429688 161.648438 28.742188 162.382812 27.773438 163.457031 C 27.722656 163.511719 27.675781 163.570312 27.65625 163.640625 C 27.617188 163.785156 27.707031 163.929688 27.792969 164.054688 C 28.023438 164.386719 28.21875 164.789062 28.507812 165.078125 C 28.59375 165.164062 28.695312 165.21875 28.808594 165.214844 C 28.847656 165.214844 28.886719 165.210938 28.929688 165.195312 C 29.265625 165.085938 29.582031 164.792969 29.867188 164.597656 C 30.3125 164.300781 30.808594 164.074219 31.332031 163.933594 C 31.84375 163.796875 32.367188 163.722656 32.886719 163.710938 " fill-opacity="1" fill-rule="nonzero"/></g><path fill="#ffffff" d="M 33.039062 170.554688 C 32.964844 170.554688 32.886719 170.546875 32.8125 170.535156 C 32.386719 170.472656 32.039062 170.234375 31.835938 169.863281 C 31.726562 169.660156 31.683594 169.445312 31.707031 169.230469 C 31.746094 168.847656 31.96875 168.507812 32.332031 168.269531 C 32.730469 168.015625 33.246094 167.921875 33.679688 168.027344 C 33.703125 168.035156 33.714844 168.058594 33.710938 168.082031 C 33.703125 168.101562 33.679688 168.117188 33.65625 168.109375 C 33.246094 168.007812 32.761719 168.097656 32.386719 168.339844 C 32.042969 168.5625 31.835938 168.882812 31.796875 169.242188 C 31.773438 169.4375 31.816406 169.636719 31.917969 169.824219 C 32.160156 170.269531 32.546875 170.410156 32.824219 170.453125 C 33.285156 170.519531 33.800781 170.359375 34.136719 170.046875 C 34.15625 170.027344 34.183594 170.027344 34.203125 170.046875 C 34.21875 170.0625 34.21875 170.089844 34.203125 170.105469 C 33.898438 170.386719 33.460938 170.554688 33.039062 170.554688 Z M 33.039062 170.554688 " fill-opacity="1" fill-rule="nonzero"/><path fill="#ffffff" d="M 30.59375 167.730469 C 30.558594 167.730469 30.523438 167.722656 30.484375 167.699219 C 30.285156 167.578125 30.074219 167.164062 29.949219 166.917969 C 29.914062 166.851562 29.886719 166.796875 29.871094 166.773438 C 29.757812 166.59375 29.664062 166.40625 29.734375 166.230469 C 29.789062 166.105469 29.910156 166.027344 30.007812 165.960938 C 30.800781 165.441406 31.667969 165.15625 32.730469 165.0625 C 33.359375 165.007812 33.984375 165.050781 34.585938 165.191406 C 35.0625 165.300781 35.488281 165.464844 35.851562 165.671875 C 36.128906 165.832031 36.394531 166.058594 36.597656 166.316406 C 36.835938 166.609375 36.640625 166.871094 36.433594 167.09375 C 36.421875 167.109375 36.40625 167.125 36.390625 167.144531 C 36.375 167.164062 36.347656 167.167969 36.328125 167.152344 C 36.308594 167.136719 36.304688 167.109375 36.320312 167.09375 C 36.335938 167.074219 36.351562 167.054688 36.367188 167.039062 C 36.597656 166.789062 36.703125 166.585938 36.527344 166.367188 C 36.328125 166.121094 36.070312 165.898438 35.800781 165.746094 C 35.445312 165.542969 35.03125 165.382812 34.5625 165.273438 C 33.96875 165.136719 33.355469 165.09375 32.738281 165.148438 C 31.691406 165.238281 30.839844 165.519531 30.058594 166.03125 C 29.953125 166.101562 29.859375 166.167969 29.820312 166.261719 C 29.757812 166.410156 29.855469 166.578125 29.949219 166.726562 C 29.964844 166.753906 29.992188 166.808594 30.03125 166.882812 C 30.144531 167.105469 30.355469 167.519531 30.535156 167.625 C 30.621094 167.675781 30.707031 167.605469 30.816406 167.5 C 30.84375 167.472656 30.871094 167.445312 30.898438 167.425781 C 31.089844 167.277344 31.3125 167.148438 31.5625 167.050781 C 32.804688 166.550781 34.15625 166.683594 35.183594 167.402344 C 35.203125 167.417969 35.207031 167.445312 35.191406 167.460938 C 35.179688 167.480469 35.148438 167.484375 35.128906 167.472656 C 34.128906 166.769531 32.808594 166.644531 31.601562 167.128906 C 31.359375 167.226562 31.140625 167.347656 30.957031 167.492188 C 30.933594 167.511719 30.910156 167.535156 30.882812 167.558594 C 30.804688 167.632812 30.707031 167.730469 30.59375 167.730469 Z M 30.59375 167.730469 " fill-opacity="1" fill-rule="nonzero"/><g clip-path="url(#db28779723)"><path fill="#ffffff" d="M 37.5625 165.546875 C 37.527344 165.546875 37.492188 165.542969 37.457031 165.53125 C 37.390625 165.507812 37.34375 165.460938 37.300781 165.421875 C 35.769531 163.953125 33.488281 163.398438 31.34375 163.972656 C 31.3125 163.984375 31.277344 163.992188 31.242188 164.003906 C 31.21875 164.011719 31.195312 163.996094 31.1875 163.976562 C 31.179688 163.953125 31.191406 163.929688 31.214844 163.921875 C 31.25 163.910156 31.285156 163.902344 31.320312 163.890625 C 33.496094 163.308594 35.808594 163.871094 37.363281 165.359375 C 37.402344 165.398438 37.441406 165.433594 37.488281 165.449219 C 37.769531 165.546875 38.050781 165.085938 38.199219 164.839844 C 38.222656 164.804688 38.242188 164.769531 38.261719 164.746094 C 38.558594 164.285156 38.765625 163.898438 38.457031 163.453125 C 38.429688 163.410156 38.398438 163.371094 38.367188 163.328125 C 38.351562 163.308594 38.355469 163.285156 38.378906 163.269531 C 38.398438 163.257812 38.425781 163.261719 38.441406 163.28125 C 38.472656 163.320312 38.503906 163.363281 38.535156 163.40625 C 38.898438 163.933594 38.585938 164.40625 38.339844 164.789062 C 38.320312 164.8125 38.300781 164.847656 38.28125 164.882812 C 38.132812 165.121094 37.871094 165.546875 37.5625 165.546875 Z M 37.5625 165.546875 " fill-opacity="1" fill-rule="nonzero"/></g><g clip-path="url(#4fc041b5ae)"><path fill="#ffffff" d="M 28.804688 165.257812 C 28.6875 165.257812 28.574219 165.207031 28.472656 165.105469 C 28.273438 164.90625 28.117188 164.652344 27.96875 164.410156 C 27.898438 164.292969 27.828125 164.183594 27.757812 164.078125 C 27.664062 163.945312 27.570312 163.789062 27.613281 163.628906 C 27.636719 163.550781 27.6875 163.484375 27.738281 163.425781 C 28.65625 162.410156 30.285156 161.621094 31.894531 161.417969 C 32.925781 161.285156 33.960938 161.304688 34.972656 161.480469 C 35 161.484375 35.015625 161.507812 35.011719 161.53125 C 35.007812 161.554688 34.984375 161.570312 34.957031 161.566406 C 33.953125 161.390625 32.925781 161.371094 31.90625 161.5 C 30.320312 161.703125 28.710938 162.480469 27.808594 163.484375 C 27.761719 163.53125 27.71875 163.585938 27.703125 163.648438 C 27.667969 163.777344 27.75 163.90625 27.832031 164.03125 C 27.90625 164.136719 27.980469 164.253906 28.046875 164.367188 C 28.195312 164.605469 28.347656 164.855469 28.539062 165.046875 C 28.625 165.128906 28.714844 165.171875 28.804688 165.171875 C 28.808594 165.171875 28.808594 165.171875 28.808594 165.171875 C 28.84375 165.171875 28.878906 165.167969 28.914062 165.15625 C 29.148438 165.078125 29.375 164.910156 29.589844 164.746094 C 29.675781 164.679688 29.757812 164.617188 29.839844 164.5625 C 30.234375 164.296875 30.671875 164.089844 31.132812 163.945312 C 31.15625 163.9375 31.179688 163.953125 31.1875 163.972656 C 31.195312 163.996094 31.183594 164.019531 31.160156 164.027344 C 30.707031 164.167969 30.28125 164.371094 29.894531 164.632812 C 29.816406 164.6875 29.734375 164.746094 29.648438 164.8125 C 29.425781 164.980469 29.195312 165.152344 28.945312 165.234375 C 28.898438 165.25 28.855469 165.257812 28.8125 165.257812 C 28.808594 165.257812 28.808594 165.257812 28.804688 165.257812 Z M 28.804688 165.257812 " fill-opacity="1" fill-rule="nonzero"/></g><path fill="#ffffff" d="M 33.203125 170.246094 C 33.023438 170.246094 32.847656 170.203125 32.691406 170.121094 C 32.398438 169.964844 32.203125 169.671875 32.179688 169.359375 C 32.175781 169.335938 32.195312 169.3125 32.21875 169.3125 C 32.246094 169.308594 32.265625 169.328125 32.269531 169.351562 C 32.292969 169.632812 32.472656 169.90625 32.734375 170.046875 C 32.996094 170.1875 33.34375 170.199219 33.613281 170.074219 C 33.636719 170.0625 33.664062 170.070312 33.675781 170.09375 C 33.683594 170.113281 33.675781 170.140625 33.652344 170.148438 C 33.511719 170.214844 33.355469 170.246094 33.203125 170.246094 Z M 33.203125 170.246094 " fill-opacity="1" fill-rule="nonzero"/><path fill="#ffffff" d="M 33.277344 169.816406 C 33.242188 169.816406 33.210938 169.8125 33.175781 169.808594 C 33.023438 169.789062 32.871094 169.726562 32.730469 169.625 C 32.582031 169.523438 32.503906 169.40625 32.488281 169.285156 C 32.488281 169.261719 32.503906 169.242188 32.53125 169.238281 C 32.554688 169.238281 32.578125 169.253906 32.582031 169.277344 C 32.59375 169.398438 32.699219 169.496094 32.785156 169.558594 C 32.914062 169.648438 33.050781 169.707031 33.1875 169.722656 C 33.339844 169.742188 33.492188 169.710938 33.601562 169.636719 C 33.621094 169.625 33.652344 169.628906 33.664062 169.648438 C 33.679688 169.667969 33.675781 169.695312 33.65625 169.707031 C 33.550781 169.777344 33.414062 169.816406 33.277344 169.816406 Z M 33.277344 169.816406 " fill-opacity="1" fill-rule="nonzero"/></svg>