<svg xmlns="http://www.w3.org/2000/svg" xmlns:xlink="http://www.w3.org/1999/xlink" width="500" zoomAndPan="magnify" viewBox="0 0 375 374.999991" height="500" preserveAspectRatio="xMidYMid meet" version="1.0"><defs><g/><clipPath id="ae77a0105c"><path d="M 96.941406 117.03125 L 278.414062 117.03125 L 278.414062 248.28125 L 96.941406 248.28125 Z M 96.941406 117.03125 " clip-rule="nonzero"/></clipPath><clipPath id="cc9dc84296"><path d="M 118.820312 76 L 148 76 L 148 93 L 118.820312 93 Z M 118.820312 76 " clip-rule="nonzero"/></clipPath></defs><g fill="#ffffff" fill-opacity="1"><g transform="translate(93.890061, 274.086612)"><g><path d="M 5.703125 0 L 5.703125 -14.734375 L 0.671875 -14.734375 L 0.671875 -17.28125 L 13.921875 -17.28125 L 13.921875 -14.734375 L 8.859375 -14.734375 L 8.859375 0 Z M 5.703125 0 "/></g></g></g><g fill="#ffffff" fill-opacity="1"><g transform="translate(112.303205, 274.086612)"><g><path d="M 1.671875 0 L 1.671875 -17.28125 L 12.96875 -17.28125 L 12.96875 -14.734375 L 4.84375 -14.734375 L 4.84375 -10 L 12.21875 -10 L 12.21875 -7.53125 L 4.84375 -7.53125 L 4.84375 -2.546875 L 12.96875 -2.546875 L 12.96875 0 Z M 1.671875 0 "/></g></g></g><g fill="#ffffff" fill-opacity="1"><g transform="translate(130.395508, 274.086612)"><g><path d="M 9.5 0.296875 C 7.757812 0.296875 6.265625 -0.078125 5.015625 -0.828125 C 3.765625 -1.578125 2.800781 -2.617188 2.125 -3.953125 C 1.445312 -5.296875 1.109375 -6.847656 1.109375 -8.609375 C 1.109375 -10.367188 1.445312 -11.925781 2.125 -13.28125 C 2.800781 -14.632812 3.765625 -15.6875 5.015625 -16.4375 C 6.265625 -17.195312 7.757812 -17.578125 9.5 -17.578125 C 11.570312 -17.578125 13.269531 -17.0625 14.59375 -16.03125 C 15.925781 -15 16.753906 -13.554688 17.078125 -11.703125 L 13.609375 -11.703125 C 13.390625 -12.640625 12.929688 -13.375 12.234375 -13.90625 C 11.535156 -14.445312 10.609375 -14.71875 9.453125 -14.71875 C 7.859375 -14.71875 6.609375 -14.171875 5.703125 -13.078125 C 4.796875 -11.992188 4.34375 -10.503906 4.34375 -8.609375 C 4.34375 -6.722656 4.796875 -5.238281 5.703125 -4.15625 C 6.609375 -3.082031 7.859375 -2.546875 9.453125 -2.546875 C 10.609375 -2.546875 11.535156 -2.796875 12.234375 -3.296875 C 12.929688 -3.796875 13.390625 -4.488281 13.609375 -5.375 L 17.078125 -5.375 C 16.753906 -3.601562 15.925781 -2.210938 14.59375 -1.203125 C 13.269531 -0.203125 11.570312 0.296875 9.5 0.296875 Z M 9.5 0.296875 "/></g></g></g><g fill="#ffffff" fill-opacity="1"><g transform="translate(152.411822, 274.086612)"><g><path d="M 1.671875 0 L 1.671875 -17.28125 L 4.84375 -17.28125 L 4.84375 -10.09375 L 12.59375 -10.09375 L 12.59375 -17.28125 L 15.75 -17.28125 L 15.75 0 L 12.59375 0 L 12.59375 -7.53125 L 4.84375 -7.53125 L 4.84375 0 Z M 1.671875 0 "/></g></g></g><g fill="#ffffff" fill-opacity="1"><g transform="translate(173.658217, 274.086612)"><g><path d="M 5.875 0 L 5.875 -15.578125 L 0.71875 -15.578125 L 0.71875 -17.28125 L 13.109375 -17.28125 L 13.109375 -15.578125 L 7.953125 -15.578125 L 7.953125 0 Z M 5.875 0 "/></g></g></g><g fill="#ffffff" fill-opacity="1"><g transform="translate(191.306294, 274.086612)"><g><path d="M 1.828125 0 L 1.828125 -17.28125 L 7.40625 -17.28125 C 8.757812 -17.28125 9.863281 -17.054688 10.71875 -16.609375 C 11.570312 -16.171875 12.203125 -15.5625 12.609375 -14.78125 C 13.023438 -14.007812 13.234375 -13.15625 13.234375 -12.21875 C 13.234375 -11.132812 12.941406 -10.15625 12.359375 -9.28125 C 11.773438 -8.40625 10.863281 -7.789062 9.625 -7.4375 L 13.40625 0 L 10.96875 0 L 7.453125 -7.140625 L 3.90625 -7.140625 L 3.90625 0 Z M 3.90625 -8.765625 L 7.265625 -8.765625 C 8.597656 -8.765625 9.566406 -9.082031 10.171875 -9.71875 C 10.773438 -10.363281 11.078125 -11.191406 11.078125 -12.203125 C 11.078125 -13.210938 10.773438 -14.019531 10.171875 -14.625 C 9.578125 -15.226562 8.597656 -15.53125 7.234375 -15.53125 L 3.90625 -15.53125 Z M 3.90625 -8.765625 "/></g></g></g><g fill="#ffffff" fill-opacity="1"><g transform="translate(209.768791, 274.086612)"><g><path d="M 9.671875 0.296875 C 7.984375 0.296875 6.5 -0.078125 5.21875 -0.828125 C 3.945312 -1.578125 2.953125 -2.625 2.234375 -3.96875 C 1.515625 -5.320312 1.15625 -6.878906 1.15625 -8.640625 C 1.15625 -10.398438 1.515625 -11.953125 2.234375 -13.296875 C 2.953125 -14.640625 3.945312 -15.6875 5.21875 -16.4375 C 6.5 -17.195312 7.984375 -17.578125 9.671875 -17.578125 C 11.390625 -17.578125 12.882812 -17.195312 14.15625 -16.4375 C 15.4375 -15.6875 16.425781 -14.640625 17.125 -13.296875 C 17.832031 -11.953125 18.1875 -10.398438 18.1875 -8.640625 C 18.1875 -6.878906 17.832031 -5.320312 17.125 -3.96875 C 16.425781 -2.625 15.4375 -1.578125 14.15625 -0.828125 C 12.882812 -0.078125 11.390625 0.296875 9.671875 0.296875 Z M 9.671875 -1.53125 C 10.941406 -1.53125 12.054688 -1.8125 13.015625 -2.375 C 13.984375 -2.945312 14.734375 -3.765625 15.265625 -4.828125 C 15.804688 -5.890625 16.078125 -7.160156 16.078125 -8.640625 C 16.078125 -10.117188 15.804688 -11.382812 15.265625 -12.4375 C 14.734375 -13.488281 13.984375 -14.296875 13.015625 -14.859375 C 12.054688 -15.429688 10.941406 -15.71875 9.671875 -15.71875 C 8.410156 -15.71875 7.296875 -15.429688 6.328125 -14.859375 C 5.367188 -14.296875 4.617188 -13.488281 4.078125 -12.4375 C 3.546875 -11.382812 3.28125 -10.117188 3.28125 -8.640625 C 3.28125 -7.160156 3.546875 -5.890625 4.078125 -4.828125 C 4.617188 -3.765625 5.367188 -2.945312 6.328125 -2.375 C 7.296875 -1.8125 8.410156 -1.53125 9.671875 -1.53125 Z M 9.671875 -1.53125 "/></g></g></g><g fill="#ffffff" fill-opacity="1"><g transform="translate(232.945031, 274.086612)"><g><path d="M 1.828125 0 L 1.828125 -17.28125 L 3.90625 -17.28125 L 13.109375 -3.4375 L 13.109375 -17.28125 L 15.1875 -17.28125 L 15.1875 0 L 13.109375 0 L 3.90625 -13.84375 L 3.90625 0 Z M 1.828125 0 "/></g></g></g><g fill="#ffffff" fill-opacity="1"><g transform="translate(253.776731, 274.086612)"><g><path d="M 1.828125 0 L 1.828125 -17.28125 L 3.90625 -17.28125 L 3.90625 0 Z M 1.828125 0 "/></g></g></g><g fill="#ffffff" fill-opacity="1"><g transform="translate(263.330014, 274.086612)"><g><path d="M 9.40625 0.296875 C 7.707031 0.296875 6.242188 -0.078125 5.015625 -0.828125 C 3.796875 -1.578125 2.847656 -2.617188 2.171875 -3.953125 C 1.492188 -5.296875 1.15625 -6.859375 1.15625 -8.640625 C 1.15625 -10.398438 1.492188 -11.953125 2.171875 -13.296875 C 2.847656 -14.640625 3.796875 -15.6875 5.015625 -16.4375 C 6.242188 -17.195312 7.707031 -17.578125 9.40625 -17.578125 C 11.382812 -17.578125 12.992188 -17.101562 14.234375 -16.15625 C 15.472656 -15.207031 16.265625 -13.890625 16.609375 -12.203125 L 14.3125 -12.203125 C 14.050781 -13.265625 13.515625 -14.117188 12.703125 -14.765625 C 11.890625 -15.421875 10.789062 -15.75 9.40625 -15.75 C 8.164062 -15.75 7.085938 -15.460938 6.171875 -14.890625 C 5.253906 -14.328125 4.539062 -13.515625 4.03125 -12.453125 C 3.53125 -11.390625 3.28125 -10.117188 3.28125 -8.640625 C 3.28125 -7.160156 3.53125 -5.890625 4.03125 -4.828125 C 4.539062 -3.765625 5.253906 -2.945312 6.171875 -2.375 C 7.085938 -1.8125 8.164062 -1.53125 9.40625 -1.53125 C 10.789062 -1.53125 11.890625 -1.847656 12.703125 -2.484375 C 13.515625 -3.117188 14.050781 -3.960938 14.3125 -5.015625 L 16.609375 -5.015625 C 16.265625 -3.347656 15.472656 -2.046875 14.234375 -1.109375 C 12.992188 -0.171875 11.382812 0.296875 9.40625 0.296875 Z M 9.40625 0.296875 "/></g></g></g><g clip-path="url(#ae77a0105c)"><path fill="#ffffff" d="M 144.363281 211.3125 L 137.863281 211.3125 L 137.863281 205.875 L 144.363281 205.875 Z M 146.425781 201.75 L 135.792969 201.75 C 134.660156 201.75 133.722656 202.683594 133.722656 203.820312 L 133.722656 213.367188 C 133.722656 214.503906 134.660156 215.4375 135.792969 215.4375 L 146.425781 215.4375 C 147.570312 215.4375 148.503906 214.503906 148.503906 213.367188 L 148.503906 203.820312 C 148.503906 202.683594 147.570312 201.75 146.425781 201.75 Z M 151.441406 191.09375 L 144.945312 191.09375 L 144.945312 185.679688 L 151.441406 185.679688 Z M 155.582031 193.15625 L 155.582031 183.617188 C 155.582031 182.484375 154.648438 181.554688 153.507812 181.554688 L 142.878906 181.554688 C 141.738281 181.554688 140.804688 182.484375 140.804688 183.617188 L 140.804688 193.15625 C 140.804688 194.292969 141.738281 195.21875 142.878906 195.21875 L 153.507812 195.21875 C 154.648438 195.21875 155.582031 194.292969 155.582031 193.15625 Z M 141.960938 231.542969 L 135.464844 231.542969 L 135.464844 226.101562 L 141.960938 226.101562 Z M 144.027344 221.972656 L 133.398438 221.972656 C 132.257812 221.972656 131.324219 222.910156 131.324219 224.039062 L 131.324219 233.605469 C 131.324219 234.738281 132.257812 235.671875 133.398438 235.671875 L 144.027344 235.671875 C 145.167969 235.671875 146.101562 234.738281 146.101562 233.605469 L 146.101562 224.039062 C 146.101562 222.910156 145.171875 221.972656 144.027344 221.972656 Z M 123.644531 211.3125 L 114.554688 211.3125 L 114.554688 205.875 L 123.644531 205.875 Z M 125.714844 201.75 L 112.488281 201.75 C 111.351562 201.75 110.414062 202.683594 110.414062 203.820312 L 110.414062 213.367188 C 110.414062 214.503906 111.351562 215.4375 112.488281 215.4375 L 125.714844 215.4375 C 126.851562 215.4375 127.785156 214.503906 127.785156 213.367188 L 127.785156 203.820312 C 127.785156 202.683594 126.851562 201.75 125.714844 201.75 Z M 114.554688 185.679688 L 129.609375 185.679688 L 129.609375 191.09375 L 114.554688 191.09375 Z M 112.488281 195.21875 L 131.679688 195.21875 C 132.816406 195.21875 133.75 194.292969 133.75 193.15625 L 133.75 183.617188 C 133.75 182.484375 132.816406 181.554688 131.679688 181.554688 L 112.488281 181.554688 C 111.351562 181.554688 110.414062 182.484375 110.414062 183.617188 L 110.414062 193.15625 C 110.414062 194.292969 111.351562 195.21875 112.488281 195.21875 Z M 121.054688 231.542969 L 114.554688 231.542969 L 114.554688 226.101562 L 121.054688 226.101562 Z M 123.125 221.972656 L 112.488281 221.972656 C 111.351562 221.972656 110.414062 222.910156 110.414062 224.039062 L 110.414062 233.605469 C 110.414062 234.738281 111.351562 235.671875 112.488281 235.671875 L 123.125 235.671875 C 124.261719 235.671875 125.195312 234.738281 125.195312 233.605469 L 125.195312 224.039062 C 125.195312 222.910156 124.265625 221.972656 123.125 221.972656 Z M 232.609375 231.542969 L 226.117188 231.542969 L 226.117188 226.101562 L 232.609375 226.101562 Z M 234.671875 221.972656 L 224.046875 221.972656 C 222.90625 221.972656 221.972656 222.910156 221.972656 224.039062 L 221.972656 233.605469 C 221.972656 234.738281 222.90625 235.671875 224.046875 235.671875 L 234.671875 235.671875 C 235.820312 235.671875 236.75 234.738281 236.75 233.605469 L 236.75 224.039062 C 236.75 222.910156 235.820312 221.972656 234.671875 221.972656 Z M 260.796875 191.09375 L 254.300781 191.09375 L 254.300781 185.679688 L 260.796875 185.679688 Z M 262.867188 181.554688 L 252.230469 181.554688 C 251.097656 181.554688 250.160156 182.484375 250.160156 183.617188 L 250.160156 193.15625 C 250.160156 194.292969 251.097656 195.21875 252.230469 195.21875 L 262.867188 195.21875 C 264.007812 195.21875 264.941406 194.292969 264.941406 193.15625 L 264.941406 183.617188 C 264.941406 182.484375 264.007812 181.554688 262.867188 181.554688 Z M 260.796875 211.3125 L 241.511719 211.3125 L 241.511719 205.875 L 260.796875 205.875 Z M 262.867188 201.75 L 239.441406 201.75 C 238.300781 201.75 237.371094 202.683594 237.371094 203.820312 L 237.371094 213.367188 C 237.371094 214.503906 238.300781 215.4375 239.441406 215.4375 L 262.867188 215.4375 C 264.007812 215.4375 264.941406 214.503906 264.941406 213.367188 L 264.941406 203.820312 C 264.941406 202.683594 264.007812 201.75 262.867188 201.75 Z M 227.691406 211.3125 L 221.191406 211.3125 L 221.191406 205.875 L 227.691406 205.875 Z M 229.753906 215.4375 C 230.890625 215.4375 231.832031 214.503906 231.832031 213.367188 L 231.832031 203.820312 C 231.832031 202.683594 230.890625 201.75 229.753906 201.75 L 219.125 201.75 C 217.984375 201.75 217.050781 202.683594 217.050781 203.820312 L 217.050781 213.367188 C 217.050781 214.503906 217.984375 215.4375 219.125 215.4375 Z M 210.398438 231.542969 L 158.269531 231.542969 L 158.269531 226.101562 L 210.398438 226.101562 Z M 212.464844 221.972656 L 156.199219 221.972656 C 155.058594 221.972656 154.128906 222.910156 154.128906 224.039062 L 154.128906 233.605469 C 154.128906 234.738281 155.058594 235.671875 156.199219 235.671875 L 212.464844 235.671875 C 213.597656 235.671875 214.539062 234.738281 214.539062 233.605469 L 214.539062 224.039062 C 214.539062 222.910156 213.597656 221.972656 212.464844 221.972656 Z M 260.796875 231.542969 L 250.328125 231.542969 L 250.328125 226.101562 L 260.796875 226.101562 Z M 262.867188 221.972656 L 248.261719 221.972656 C 247.117188 221.972656 246.1875 222.910156 246.1875 224.039062 L 246.1875 233.605469 C 246.1875 234.738281 247.117188 235.671875 248.261719 235.671875 L 262.867188 235.671875 C 264.007812 235.671875 264.941406 234.738281 264.941406 233.605469 L 264.941406 224.039062 C 264.941406 222.910156 264.007812 221.972656 262.867188 221.972656 Z M 158.699219 205.875 L 165.191406 205.875 L 165.191406 211.3125 L 158.699219 211.3125 Z M 154.558594 203.820312 L 154.558594 213.367188 C 154.558594 214.503906 155.484375 215.4375 156.628906 215.4375 L 167.261719 215.4375 C 168.402344 215.4375 169.335938 214.503906 169.335938 213.367188 L 169.335938 203.820312 C 169.335938 202.683594 168.402344 201.75 167.261719 201.75 L 156.628906 201.75 C 155.484375 201.75 154.558594 202.683594 154.558594 203.820312 Z M 232.4375 185.679688 L 238.925781 185.679688 L 238.925781 191.09375 L 232.4375 191.09375 Z M 230.367188 195.21875 L 240.992188 195.21875 C 242.136719 195.21875 243.066406 194.292969 243.066406 193.15625 L 243.066406 183.617188 C 243.066406 182.484375 242.136719 181.554688 240.992188 181.554688 L 230.367188 181.554688 C 229.222656 181.554688 228.296875 182.484375 228.296875 183.617188 L 228.296875 193.15625 C 228.296875 194.292969 229.222656 195.21875 230.367188 195.21875 Z M 210.558594 185.679688 L 217.050781 185.679688 L 217.050781 191.09375 L 210.558594 191.09375 Z M 208.492188 195.21875 L 219.121094 195.21875 C 220.265625 195.21875 221.195312 194.292969 221.195312 193.15625 L 221.195312 183.617188 C 221.195312 182.484375 220.265625 181.554688 219.121094 181.554688 L 208.492188 181.554688 C 207.355469 181.554688 206.417969 182.484375 206.417969 183.617188 L 206.417969 193.15625 C 206.417969 194.292969 207.355469 195.21875 208.492188 195.21875 Z M 179.53125 205.875 L 186.023438 205.875 L 186.023438 211.3125 L 179.53125 211.3125 Z M 175.390625 203.820312 L 175.390625 213.367188 C 175.390625 214.503906 176.320312 215.4375 177.464844 215.4375 L 188.09375 215.4375 C 189.230469 215.4375 190.167969 214.503906 190.167969 213.367188 L 190.167969 203.820312 C 190.167969 202.683594 189.230469 201.75 188.09375 201.75 L 177.464844 201.75 C 176.320312 201.75 175.390625 202.683594 175.390625 203.820312 Z M 206.859375 211.3125 L 200.359375 211.3125 L 200.359375 205.875 L 206.859375 205.875 Z M 198.296875 201.75 C 197.152344 201.75 196.21875 202.683594 196.21875 203.820312 L 196.21875 213.367188 C 196.21875 214.503906 197.152344 215.4375 198.296875 215.4375 L 208.925781 215.4375 C 210.066406 215.4375 211 214.503906 211 213.367188 L 211 203.820312 C 211 202.683594 210.066406 201.75 208.925781 201.75 Z M 166.8125 185.679688 L 173.308594 185.679688 L 173.308594 191.09375 L 166.8125 191.09375 Z M 164.746094 195.21875 L 175.375 195.21875 C 176.519531 195.21875 177.449219 194.292969 177.449219 193.15625 L 177.449219 183.617188 C 177.449219 182.484375 176.519531 181.554688 175.375 181.554688 L 164.746094 181.554688 C 163.609375 181.554688 162.671875 182.484375 162.671875 183.617188 L 162.671875 193.15625 C 162.671875 194.292969 163.609375 195.21875 164.746094 195.21875 Z M 188.6875 185.679688 L 195.179688 185.679688 L 195.179688 191.09375 L 188.6875 191.09375 Z M 186.617188 195.21875 L 197.25 195.21875 C 198.390625 195.21875 199.320312 194.292969 199.320312 193.15625 L 199.320312 183.617188 C 199.320312 182.484375 198.390625 181.554688 197.25 181.554688 L 186.617188 181.554688 C 185.476562 181.554688 184.542969 182.484375 184.542969 183.617188 L 184.542969 193.15625 C 184.542969 194.292969 185.476562 195.21875 186.617188 195.21875 Z M 274.273438 240.023438 C 274.273438 242.292969 272.398438 244.152344 270.125 244.152344 L 105.230469 244.152344 C 102.953125 244.152344 101.082031 242.292969 101.082031 240.023438 L 101.082031 177.199219 C 101.082031 174.929688 102.953125 173.070312 105.230469 173.070312 L 253.34375 173.070312 L 253.34375 159.117188 C 253.34375 156.003906 250.804688 153.46875 247.679688 153.46875 L 147.636719 153.46875 C 142.429688 153.46875 138.191406 149.25 138.191406 144.058594 L 138.191406 121.160156 L 141.96875 121.160156 L 141.96875 144.058594 C 141.96875 147.171875 144.511719 149.707031 147.636719 149.707031 L 247.679688 149.707031 C 252.886719 149.707031 257.121094 153.925781 257.121094 159.117188 L 257.121094 173.070312 L 270.125 173.070312 C 272.398438 173.070312 274.273438 174.929688 274.273438 177.199219 Z M 270.125 168.941406 L 261.265625 168.941406 L 261.265625 159.117188 C 261.265625 151.652344 255.167969 145.578125 247.679688 145.578125 L 147.636719 145.578125 C 146.796875 145.578125 146.113281 144.898438 146.113281 144.058594 L 146.113281 117.03125 L 134.050781 117.03125 L 134.050781 144.058594 C 134.050781 151.523438 140.144531 157.597656 147.636719 157.597656 L 247.679688 157.597656 C 248.519531 157.597656 249.203125 158.277344 249.203125 159.117188 L 249.203125 168.941406 L 105.230469 168.941406 C 100.660156 168.941406 96.941406 172.648438 96.941406 177.199219 L 96.941406 240.023438 C 96.941406 244.578125 100.660156 248.28125 105.230469 248.28125 L 270.125 248.28125 C 274.695312 248.28125 278.414062 244.578125 278.414062 240.023438 L 278.414062 177.199219 C 278.414062 172.648438 274.695312 168.941406 270.125 168.941406 " fill-opacity="1" fill-rule="nonzero"/></g><path fill="#ffffff" d="M 135.144531 109.089844 C 135.0625 109.90625 135.203125 110.761719 135.640625 111.613281 C 138.460938 117.148438 147.488281 113.683594 145.929688 107.667969 C 144.40625 101.789062 135.695312 103.679688 135.144531 109.089844 Z M 135.144531 109.089844 " fill-opacity="1" fill-rule="nonzero"/><path fill="#ffffff" d="M 130.296875 102.539062 C 130.925781 102.941406 131.503906 102.050781 131.925781 101.703125 C 134.199219 99.8125 137.191406 99.144531 140.074219 98.9375 C 143.453125 98.699219 146.578125 100.414062 149.269531 102.28125 C 149.511719 102.449219 149.761719 102.625 150.046875 102.699219 C 151.246094 102.996094 152.644531 100.835938 153.3125 100.0625 C 154.144531 99.097656 154.765625 98.128906 153.945312 97.042969 C 153.171875 96.011719 152.164062 95.082031 151.066406 94.414062 C 149.558594 93.492188 147.886719 92.855469 146.175781 92.429688 C 143.835938 91.847656 141.394531 91.675781 138.992188 91.902344 C 135.085938 92.269531 131.640625 93.378906 128.441406 95.609375 C 128.039062 95.890625 127.617188 96.195312 127.441406 96.652344 C 127.171875 97.347656 127.570312 98.101562 127.953125 98.742188 C 128.242188 99.230469 129.339844 101.929688 130.296875 102.539062 Z M 130.296875 102.539062 " fill-opacity="1" fill-rule="nonzero"/><path fill="#ffffff" d="M 139.933594 86.09375 C 146.238281 86.039062 152.417969 88.46875 156.9375 93.085938 C 157.101562 93.25 157.269531 93.425781 157.492188 93.503906 C 158.894531 94.007812 160.175781 91.378906 160.722656 90.492188 C 161.824219 88.695312 162.789062 86.9375 161.488281 84.925781 C 159.566406 81.957031 155.9375 79.367188 152.597656 78.253906 C 147.1875 76.449219 141.328125 75.96875 135.726562 76.730469 C 129.988281 77.515625 123.390625 80.570312 119.609375 85.039062 C 119.414062 85.265625 119.230469 85.511719 119.15625 85.800781 C 119 86.40625 119.351562 87.007812 119.691406 87.53125 C 120.585938 88.914062 121.339844 90.585938 122.472656 91.785156 C 122.8125 92.140625 123.203125 92.371094 123.65625 92.363281 C 123.804688 92.359375 123.960938 92.332031 124.121094 92.277344 C 125.4375 91.820312 126.671875 90.597656 127.785156 89.796875 C 129.519531 88.554688 131.457031 87.613281 133.511719 87.027344 C 135.511719 86.453125 137.550781 86.148438 139.582031 86.101562 " fill-opacity="1" fill-rule="nonzero"/><path fill="#ffffff" d="M 140.179688 114.570312 C 139.878906 114.570312 139.582031 114.546875 139.289062 114.5 C 137.621094 114.238281 136.269531 113.238281 135.480469 111.691406 C 135.050781 110.847656 134.878906 109.964844 134.96875 109.070312 C 135.128906 107.472656 136 106.054688 137.421875 105.074219 C 138.972656 104.003906 140.980469 103.613281 142.671875 104.0625 C 142.765625 104.089844 142.820312 104.183594 142.796875 104.28125 C 142.773438 104.375 142.671875 104.429688 142.578125 104.40625 C 140.988281 103.984375 139.089844 104.355469 137.621094 105.367188 C 136.289062 106.285156 135.472656 107.613281 135.320312 109.105469 C 135.238281 109.933594 135.398438 110.75 135.796875 111.53125 C 136.742188 113.382812 138.246094 113.976562 139.34375 114.152344 C 141.136719 114.433594 143.152344 113.769531 144.46875 112.457031 C 144.539062 112.386719 144.652344 112.386719 144.71875 112.457031 C 144.789062 112.523438 144.789062 112.636719 144.71875 112.707031 C 143.539062 113.882812 141.832031 114.566406 140.179688 114.570312 Z M 140.179688 114.570312 " fill-opacity="1" fill-rule="nonzero"/><path fill="#ffffff" d="M 130.628906 102.824219 C 130.492188 102.824219 130.347656 102.785156 130.203125 102.691406 C 129.421875 102.191406 128.601562 100.476562 128.109375 99.449219 C 127.972656 99.164062 127.863281 98.9375 127.800781 98.835938 C 127.359375 98.101562 126.992188 97.324219 127.273438 96.589844 C 127.472656 96.066406 127.953125 95.734375 128.335938 95.464844 C 131.429688 93.304688 134.8125 92.117188 138.972656 91.726562 C 141.425781 91.492188 143.863281 91.671875 146.214844 92.257812 C 148.074219 92.722656 149.734375 93.394531 151.15625 94.261719 C 152.246094 94.925781 153.285156 95.875 154.082031 96.933594 C 155.011719 98.164062 154.238281 99.253906 153.441406 100.175781 C 153.386719 100.238281 153.328125 100.3125 153.265625 100.390625 C 153.207031 100.46875 153.09375 100.480469 153.015625 100.421875 C 152.9375 100.359375 152.925781 100.246094 152.988281 100.171875 C 153.054688 100.089844 153.117188 100.011719 153.171875 99.945312 C 154.074219 98.902344 154.496094 98.070312 153.800781 97.148438 C 153.027344 96.125 152.023438 95.207031 150.96875 94.5625 C 149.582031 93.714844 147.953125 93.054688 146.128906 92.601562 C 143.8125 92.027344 141.417969 91.847656 139.003906 92.078125 C 134.910156 92.464844 131.582031 93.632812 128.539062 95.753906 C 128.113281 96.046875 127.753906 96.324219 127.605469 96.710938 C 127.363281 97.332031 127.734375 98.039062 128.101562 98.648438 C 128.175781 98.765625 128.28125 98.988281 128.425781 99.292969 C 128.871094 100.21875 129.699219 101.941406 130.390625 102.386719 C 130.734375 102.601562 131.066406 102.304688 131.496094 101.863281 C 131.605469 101.75 131.707031 101.644531 131.808594 101.5625 C 132.558594 100.9375 133.4375 100.410156 134.414062 99.992188 C 139.257812 97.921875 144.542969 98.472656 148.554688 101.460938 C 148.632812 101.519531 148.648438 101.628906 148.589844 101.707031 C 148.53125 101.789062 148.417969 101.804688 148.339844 101.746094 C 144.429688 98.832031 139.277344 98.300781 134.554688 100.320312 C 133.609375 100.722656 132.761719 101.234375 132.035156 101.835938 C 131.953125 101.90625 131.851562 102.007812 131.75 102.113281 C 131.453125 102.425781 131.066406 102.824219 130.628906 102.824219 Z M 130.628906 102.824219 " fill-opacity="1" fill-rule="nonzero"/><path fill="#ffffff" d="M 157.847656 93.746094 C 157.710938 93.746094 157.570312 93.722656 157.429688 93.671875 C 157.171875 93.578125 156.984375 93.386719 156.816406 93.214844 C 150.832031 87.101562 141.925781 84.800781 133.5625 87.195312 C 133.425781 87.234375 133.292969 87.273438 133.160156 87.316406 C 133.066406 87.34375 132.964844 87.292969 132.9375 87.199219 C 132.910156 87.105469 132.960938 87.003906 133.054688 86.976562 C 133.191406 86.933594 133.324219 86.894531 133.460938 86.855469 C 141.953125 84.421875 150.996094 86.761719 157.066406 92.960938 C 157.226562 93.125 157.371094 93.273438 157.550781 93.339844 C 158.644531 93.730469 159.746094 91.820312 160.339844 90.796875 C 160.425781 90.644531 160.503906 90.507812 160.570312 90.402344 C 161.742188 88.492188 162.542969 86.882812 161.339844 85.023438 C 161.230469 84.855469 161.113281 84.683594 160.988281 84.511719 C 160.933594 84.433594 160.949219 84.324219 161.03125 84.265625 C 161.109375 84.207031 161.21875 84.226562 161.277344 84.304688 C 161.40625 84.480469 161.527344 84.65625 161.640625 84.832031 C 163.058594 87.027344 161.847656 89 160.875 90.585938 C 160.808594 90.691406 160.730469 90.824219 160.644531 90.972656 C 160.066406 91.972656 159.042969 93.742188 157.847656 93.746094 Z M 157.847656 93.746094 " fill-opacity="1" fill-rule="nonzero"/><g clip-path="url(#cc9dc84296)"><path fill="#ffffff" d="M 123.640625 92.539062 C 123.179688 92.539062 122.742188 92.324219 122.34375 91.902344 C 121.558594 91.074219 120.953125 90.023438 120.367188 89.003906 C 120.089844 88.519531 119.824219 88.0625 119.542969 87.625 C 119.183594 87.070312 118.816406 86.417969 118.988281 85.757812 C 119.070312 85.433594 119.269531 85.164062 119.476562 84.921875 C 123.054688 80.695312 129.425781 77.410156 135.707031 76.554688 C 139.730469 76.007812 143.777344 76.097656 147.734375 76.820312 C 147.832031 76.839844 147.894531 76.933594 147.878906 77.027344 C 147.859375 77.125 147.769531 77.1875 147.671875 77.171875 C 143.75 76.453125 139.738281 76.363281 135.753906 76.90625 C 129.554688 77.75 123.273438 80.988281 119.746094 85.152344 C 119.570312 85.359375 119.394531 85.589844 119.332031 85.84375 C 119.195312 86.371094 119.507812 86.917969 119.84375 87.429688 C 120.128906 87.875 120.410156 88.359375 120.675781 88.828125 C 121.253906 89.828125 121.847656 90.859375 122.605469 91.660156 C 122.933594 92.007812 123.28125 92.183594 123.640625 92.183594 C 123.644531 92.183594 123.652344 92.183594 123.65625 92.183594 C 123.789062 92.179688 123.925781 92.15625 124.066406 92.105469 C 124.980469 91.789062 125.859375 91.085938 126.707031 90.40625 C 127.046875 90.136719 127.367188 89.878906 127.683594 89.652344 C 129.226562 88.542969 130.925781 87.679688 132.726562 87.082031 C 132.816406 87.050781 132.917969 87.101562 132.949219 87.195312 C 132.980469 87.285156 132.929688 87.386719 132.835938 87.417969 C 131.070312 88.003906 129.40625 88.851562 127.890625 89.941406 C 127.582031 90.164062 127.261719 90.414062 126.925781 90.683594 C 126.054688 91.382812 125.15625 92.101562 124.179688 92.441406 C 124.003906 92.503906 123.832031 92.535156 123.660156 92.539062 C 123.652344 92.539062 123.644531 92.539062 123.640625 92.539062 Z M 123.640625 92.539062 " fill-opacity="1" fill-rule="nonzero"/></g><path fill="#ffffff" d="M 140.808594 113.292969 C 140.117188 113.292969 139.421875 113.117188 138.816406 112.769531 C 137.675781 112.117188 136.910156 110.902344 136.8125 109.59375 C 136.804688 109.496094 136.878906 109.414062 136.976562 109.40625 C 137.074219 109.394531 137.160156 109.46875 137.167969 109.570312 C 137.253906 110.742188 137.96875 111.878906 138.992188 112.464844 C 140.015625 113.050781 141.359375 113.089844 142.417969 112.570312 C 142.503906 112.527344 142.613281 112.566406 142.65625 112.652344 C 142.699219 112.738281 142.660156 112.84375 142.574219 112.890625 C 142.023438 113.160156 141.417969 113.292969 140.808594 113.292969 Z M 140.808594 113.292969 " fill-opacity="1" fill-rule="nonzero"/><path fill="#ffffff" d="M 141.101562 111.496094 C 140.972656 111.496094 140.839844 111.488281 140.707031 111.46875 C 140.117188 111.386719 139.515625 111.125 138.96875 110.710938 C 138.398438 110.277344 138.082031 109.804688 138.03125 109.296875 C 138.019531 109.199219 138.09375 109.113281 138.191406 109.101562 C 138.289062 109.09375 138.375 109.164062 138.386719 109.261719 C 138.4375 109.761719 138.847656 110.171875 139.183594 110.425781 C 139.683594 110.804688 140.226562 111.046875 140.757812 111.117188 C 141.347656 111.199219 141.9375 111.070312 142.375 110.761719 C 142.457031 110.707031 142.566406 110.726562 142.625 110.804688 C 142.679688 110.886719 142.660156 110.996094 142.578125 111.054688 C 142.167969 111.34375 141.644531 111.496094 141.101562 111.496094 Z M 141.101562 111.496094 " fill-opacity="1" fill-rule="nonzero"/></svg>